<svg width="75" height="70" viewBox="0 0 75 70" fill="none" xmlns="http://www.w3.org/2000/svg">
<path d="M22.1825 51.61C21.6625 51.61 21.1792 51.52 20.7325 51.34C20.2925 51.1533 19.9025 50.8967 19.5625 50.57C19.2292 50.2367 18.9692 49.8533 18.7825 49.42C18.6025 48.98 18.5125 48.5067 18.5125 48C18.5125 47.4933 18.6025 47.0233 18.7825 46.59C18.9692 46.15 19.2292 45.7667 19.5625 45.44C19.9025 45.1067 20.2959 44.85 20.7425 44.67C21.1892 44.4833 21.6692 44.39 22.1825 44.39C22.5492 44.39 22.9059 44.44 23.2525 44.54C23.6059 44.6333 23.9292 44.77 24.2225 44.95C24.5225 45.13 24.7825 45.3467 25.0025 45.6L24.3025 46.32C24.0425 46.0067 23.7259 45.77 23.3525 45.61C22.9792 45.4433 22.5892 45.36 22.1825 45.36C21.8092 45.36 21.4625 45.4267 21.1425 45.56C20.8292 45.6933 20.5559 45.88 20.3225 46.12C20.0892 46.3533 19.9059 46.63 19.7725 46.95C19.6459 47.27 19.5825 47.62 19.5825 48C19.5825 48.3733 19.6459 48.72 19.7725 49.04C19.9059 49.36 20.0925 49.64 20.3325 49.88C20.5725 50.12 20.8525 50.3067 21.1725 50.44C21.4925 50.5733 21.8392 50.64 22.2125 50.64C22.6192 50.64 23.0025 50.56 23.3625 50.4C23.7292 50.2333 24.0392 50 24.2925 49.7L24.9825 50.4C24.7492 50.6467 24.4825 50.8633 24.1825 51.05C23.8892 51.23 23.5692 51.37 23.2225 51.47C22.8825 51.5633 22.5359 51.61 22.1825 51.61ZM25.8898 51.5V44.5L26.8898 44.28V46.93C27.2831 46.5167 27.7931 46.31 28.4198 46.31C28.8131 46.31 29.1565 46.3933 29.4498 46.56C29.7498 46.7267 29.9831 46.96 30.1498 47.26C30.3231 47.56 30.4098 47.9067 30.4098 48.3V51.5H29.4098V48.47C29.4098 48.07 29.2965 47.7567 29.0698 47.53C28.8431 47.2967 28.5331 47.18 28.1398 47.18C27.8731 47.18 27.6331 47.2367 27.4198 47.35C27.2065 47.4633 27.0298 47.6267 26.8898 47.84V51.5H25.8898ZM33.1736 51.59C32.807 51.59 32.4836 51.5267 32.2036 51.4C31.9236 51.2667 31.7036 51.0833 31.5436 50.85C31.3836 50.6167 31.3036 50.3467 31.3036 50.04C31.3036 49.56 31.487 49.1833 31.8536 48.91C32.2203 48.63 32.7236 48.49 33.3636 48.49C33.8636 48.49 34.327 48.5867 34.7536 48.78V48.24C34.7536 47.8733 34.647 47.6 34.4336 47.42C34.227 47.24 33.9203 47.15 33.5136 47.15C33.2803 47.15 33.037 47.1867 32.7836 47.26C32.5303 47.3267 32.247 47.4333 31.9336 47.58L31.5636 46.83C31.9503 46.65 32.3103 46.52 32.6436 46.44C32.977 46.3533 33.3136 46.31 33.6536 46.31C34.3136 46.31 34.8236 46.4667 35.1836 46.78C35.5503 47.0933 35.7336 47.54 35.7336 48.12V51.5H34.7536V51.06C34.527 51.24 34.2836 51.3733 34.0236 51.46C33.7636 51.5467 33.4803 51.59 33.1736 51.59ZM32.2636 50.02C32.2636 50.2667 32.367 50.4667 32.5736 50.62C32.787 50.7667 33.0636 50.84 33.4036 50.84C33.6703 50.84 33.9136 50.8033 34.1336 50.73C34.3603 50.65 34.567 50.5267 34.7536 50.36V49.5C34.5603 49.3867 34.357 49.3067 34.1436 49.26C33.937 49.2067 33.7036 49.18 33.4436 49.18C33.077 49.18 32.787 49.2567 32.5736 49.41C32.367 49.5567 32.2636 49.76 32.2636 50.02ZM38.9194 51.59C38.4261 51.59 38.0494 51.4767 37.7894 51.25C37.5294 51.0167 37.3994 50.68 37.3994 50.24V47.25H36.3194V46.41H37.3994V45.11L38.3894 44.87V46.41H39.8894V47.25H38.3894V50.01C38.3894 50.27 38.4461 50.4567 38.5594 50.57C38.6794 50.6767 38.8727 50.73 39.1394 50.73C39.2794 50.73 39.4027 50.72 39.5094 50.7C39.6227 50.68 39.7427 50.65 39.8694 50.61V51.45C39.7361 51.4967 39.5794 51.53 39.3994 51.55C39.2261 51.5767 39.0661 51.59 38.9194 51.59ZM42.9038 51.59C42.4105 51.59 42.0338 51.4767 41.7738 51.25C41.5138 51.0167 41.3838 50.68 41.3838 50.24V47.25H40.3038V46.41H41.3838V45.11L42.3738 44.87V46.41H43.8738V47.25H42.3738V50.01C42.3738 50.27 42.4305 50.4567 42.5438 50.57C42.6638 50.6767 42.8571 50.73 43.1238 50.73C43.2638 50.73 43.3871 50.72 43.4938 50.7C43.6071 50.68 43.7271 50.65 43.8538 50.61V51.45C43.7205 51.4967 43.5638 51.53 43.3838 51.55C43.2105 51.5767 43.0505 51.59 42.9038 51.59ZM44.6105 51.5V46.41H45.6105V51.5H44.6105ZM45.1105 45.59C44.9438 45.59 44.8005 45.53 44.6805 45.41C44.5605 45.2833 44.5005 45.1367 44.5005 44.97C44.5005 44.7967 44.5605 44.6533 44.6805 44.54C44.8005 44.42 44.9438 44.36 45.1105 44.36C45.2838 44.36 45.4305 44.42 45.5505 44.54C45.6705 44.6533 45.7305 44.7967 45.7305 44.97C45.7305 45.1367 45.6705 45.2833 45.5505 45.41C45.4305 45.53 45.2838 45.59 45.1105 45.59ZM46.7882 51.5V46.41H47.7882V46.93C48.1816 46.5167 48.6916 46.31 49.3182 46.31C49.7116 46.31 50.0549 46.3933 50.3482 46.56C50.6482 46.7267 50.8816 46.96 51.0482 47.26C51.2216 47.56 51.3082 47.9067 51.3082 48.3V51.5H50.3082V48.47C50.3082 48.07 50.1949 47.7567 49.9682 47.53C49.7482 47.2967 49.4382 47.18 49.0382 47.18C48.7716 47.18 48.5316 47.2367 48.3182 47.35C48.1049 47.4633 47.9282 47.6267 47.7882 47.84V51.5H46.7882ZM54.9821 53.64C54.6087 53.64 54.2454 53.5967 53.8921 53.51C53.5387 53.4233 53.2187 53.3 52.9321 53.14L53.3121 52.36C53.6121 52.5133 53.8921 52.6233 54.1521 52.69C54.4187 52.7633 54.6854 52.8 54.9521 52.8C55.3987 52.8 55.7354 52.6967 55.9621 52.49C56.1954 52.2833 56.3121 51.98 56.3121 51.58V51C55.8654 51.3533 55.3554 51.53 54.7821 51.53C54.3154 51.53 53.8854 51.4167 53.4921 51.19C53.1054 50.9567 52.7987 50.6433 52.5721 50.25C52.3454 49.85 52.2321 49.41 52.2321 48.93C52.2321 48.4433 52.3454 48.0033 52.5721 47.61C52.8054 47.21 53.1154 46.8967 53.5021 46.67C53.8954 46.4367 54.3354 46.32 54.8221 46.32C55.0954 46.32 55.3587 46.3667 55.6121 46.46C55.8721 46.5467 56.1087 46.6733 56.3221 46.84V46.41H57.3121V51.58C57.3121 52.24 57.1087 52.7467 56.7021 53.1C56.3021 53.46 55.7287 53.64 54.9821 53.64ZM54.9121 50.67C55.2054 50.67 55.4721 50.62 55.7121 50.52C55.9521 50.4133 56.1521 50.2633 56.3121 50.07V47.79C56.1521 47.6033 55.9487 47.4567 55.7021 47.35C55.4621 47.2433 55.1987 47.19 54.9121 47.19C54.5921 47.19 54.3021 47.2667 54.0421 47.42C53.7887 47.5733 53.5854 47.7833 53.4321 48.05C53.2854 48.31 53.2121 48.6033 53.2121 48.93C53.2121 49.2567 53.2854 49.5533 53.4321 49.82C53.5854 50.08 53.7887 50.2867 54.0421 50.44C54.3021 50.5933 54.5921 50.67 54.9121 50.67Z" fill="#92A09F"/>
<path d="M45.3259 19.7777L44.4944 20.3333V20.3333L45.3259 19.7777ZM45.3259 30.2223L44.4944 29.6667V29.6667L45.3259 30.2223ZM44.2223 31.3259L43.6667 30.4944H43.6667L44.2223 31.3259ZM40 31.9986L39.9956 30.9986C39.4451 31.001 39 31.4481 39 31.9986H40ZM40 32L40.8944 32.4472C40.9639 32.3084 41 32.1552 41 32H40ZM36 32H35C35 32.1552 35.0361 32.3084 35.1056 32.4472L36 32ZM36 31.9986H37C37 31.4481 36.5549 31.001 36.0044 30.9986L36 31.9986ZM31.7777 31.3259L32.3333 30.4944H32.3333L31.7777 31.3259ZM30.6741 30.2223L31.5056 29.6667L31.5056 29.6667L30.6741 30.2223ZM30.6741 19.7777L31.5056 20.3333L30.6741 19.7777ZM31.7777 18.6741L32.3333 19.5056L31.7777 18.6741ZM44.2223 18.6741L43.6667 19.5056L43.6667 19.5056L44.2223 18.6741ZM47 25C47 23.6164 47.0012 22.5033 46.9106 21.6126C46.8183 20.7052 46.6225 19.9183 46.1573 19.2221L44.4944 20.3333C44.7034 20.646 44.8446 21.0658 44.9209 21.8151C44.9988 22.581 45 23.5747 45 25H47ZM46.1573 30.7779C46.6225 30.0817 46.8183 29.2948 46.9106 28.3874C47.0012 27.4967 47 26.3836 47 25H45C45 26.4253 44.9988 27.419 44.9209 28.1849C44.8446 28.9342 44.7034 29.354 44.4944 29.6667L46.1573 30.7779ZM44.7779 32.1573C45.3238 31.7926 45.7926 31.3238 46.1573 30.7779L44.4944 29.6667C44.2755 29.9943 43.9943 30.2755 43.6667 30.4944L44.7779 32.1573ZM40.0044 32.9986C41.0785 32.9939 41.9763 32.9739 42.7267 32.8701C43.4931 32.7642 44.1699 32.5636 44.7779 32.1573L43.6667 30.4944C43.3934 30.6771 43.0378 30.8081 42.4528 30.889C41.8518 30.9721 41.0792 30.9939 39.9956 30.9986L40.0044 32.9986ZM41 32V31.9986H39V32H41ZM39.7889 34.6584L40.8944 32.4472L39.1056 31.5528L38 33.7639L39.7889 34.6584ZM36.2111 34.6584C36.9482 36.1325 39.0518 36.1325 39.7889 34.6584L38 33.7639L38 33.7639L36.2111 34.6584ZM35.1056 32.4472L36.2111 34.6584L38 33.7639L36.8944 31.5528L35.1056 32.4472ZM35 31.9986V32H37V31.9986H35ZM31.2221 32.1573C31.8301 32.5636 32.5069 32.7642 33.2733 32.8701C34.0237 32.9739 34.9215 32.9939 35.9956 32.9986L36.0044 30.9986C34.9208 30.9939 34.1482 30.9721 33.5472 30.889C32.9622 30.8081 32.6066 30.6771 32.3333 30.4944L31.2221 32.1573ZM29.8427 30.7779C30.2074 31.3238 30.6762 31.7926 31.2221 32.1573L32.3333 30.4944C32.0057 30.2755 31.7245 29.9943 31.5056 29.6667L29.8427 30.7779ZM29 25C29 26.3836 28.9988 27.4967 29.0894 28.3874C29.1817 29.2948 29.3775 30.0817 29.8427 30.7779L31.5056 29.6667C31.2966 29.354 31.1554 28.9342 31.0791 28.1849C31.0012 27.419 31 26.4253 31 25H29ZM29.8427 19.2221C29.3775 19.9183 29.1817 20.7052 29.0894 21.6126C28.9988 22.5033 29 23.6164 29 25H31C31 23.5747 31.0012 22.581 31.0791 21.8151C31.1554 21.0658 31.2966 20.646 31.5056 20.3333L29.8427 19.2221ZM31.2221 17.8427C30.6762 18.2074 30.2074 18.6762 29.8427 19.2221L31.5056 20.3333C31.7245 20.0057 32.0057 19.7245 32.3333 19.5056L31.2221 17.8427ZM37 17C35.6164 17 34.5033 16.9988 33.6126 17.0894C32.7052 17.1817 31.9183 17.3775 31.2221 17.8427L32.3333 19.5056C32.646 19.2966 33.0658 19.1554 33.8151 19.0791C34.581 19.0012 35.5747 19 37 19V17ZM39 17H37V19H39V17ZM44.7779 17.8427C44.0817 17.3775 43.2948 17.1817 42.3874 17.0894C41.4967 16.9988 40.3836 17 39 17V19C40.4253 19 41.419 19.0012 42.1849 19.0791C42.9342 19.1554 43.354 19.2966 43.6667 19.5056L44.7779 17.8427ZM46.1573 19.2221C45.7926 18.6762 45.3238 18.2074 44.7779 17.8427L43.6667 19.5056C43.9943 19.7245 44.2755 20.0057 44.4944 20.3333L46.1573 19.2221Z" fill="#92A09F"/>
<circle cx="42" cy="25" r="1" fill="#92A09F" stroke="#92A09F" stroke-linecap="round"/>
<circle cx="38" cy="25" r="1" fill="#92A09F" stroke="#92A09F" stroke-linecap="round"/>
<circle cx="34" cy="25" r="1" fill="#92A09F" stroke="#92A09F" stroke-linecap="round"/>
</svg>
